<?xml version="1.0" encoding="iso-8859-1"?>
<!-- Uploaded to: SVG Repo, www.svgrepo.com, Generator: SVG Repo Mixer Tools -->
<svg version="1.1" id="Layer_1" xmlns="http://www.w3.org/2000/svg" xmlns:xlink="http://www.w3.org/1999/xlink" 
	 viewBox="0 0 512 512" xml:space="preserve">
<g>
	<rect x="178.568" y="143.452" style="fill:#D35B38;" width="154.865" height="324.131"/>
	<rect x="151.56" y="93.037" style="fill:#D35B38;" width="208.89" height="50.425"/>
	<path style="fill:#D35B38;" d="M256,10.199L256,10.199c-36.3,0-65.727,29.427-65.727,65.727v17.107h131.453V75.926
		C321.727,39.626,292.3,10.199,256,10.199z"/>
	<rect x="333.432" y="210.083" style="fill:#D35B38;" width="37.819" height="85.531"/>
	<rect x="140.749" y="210.083" style="fill:#D35B38;" width="37.819" height="85.531"/>
	<rect x="143.452" y="467.582" style="fill:#D35B38;" width="225.096" height="34.214"/>
</g>
<g>
	<path style="fill:#4D3D36;" d="M371.247,305.816c5.632,0,10.199-4.567,10.199-10.199v-85.536c0-5.632-4.567-10.199-10.199-10.199
		h-27.616v-46.228h16.812c5.632,0,10.199-4.567,10.199-10.199V93.033c0-5.632-4.567-10.199-10.199-10.199h-28.517v-6.907
		C331.926,34.061,297.866,0,256,0s-75.926,34.061-75.926,75.926v6.907h-28.517c-5.632,0-10.199,4.567-10.199,10.199v50.422
		c0,5.632,4.567,10.199,10.199,10.199h16.812v46.228h-27.616c-5.632,0-10.199,4.567-10.199,10.199v85.536
		c0,5.632,4.567,10.199,10.199,10.199h27.616v151.571h-24.916c-5.632,0-10.199,4.567-10.199,10.199v34.215
		c0,5.632,4.567,10.199,10.199,10.199h225.091c5.632,0,10.199-4.567,10.199-10.199v-34.214c0-5.632-4.567-10.199-10.199-10.199
		H343.63V305.816H371.247z M361.048,220.28v65.137h-17.417V220.28L361.048,220.28L361.048,220.28z M200.472,75.926
		c0-30.618,24.908-55.528,55.528-55.528s55.528,24.91,55.528,55.528v6.907H200.472V75.926z M161.756,133.255v-30.023h188.488v30.023
		H161.756z M150.952,285.418V220.28h17.417v65.137H150.952z M358.347,477.786v13.816H153.653v-13.816H358.347z M323.232,457.387
		H188.768V153.653h134.464V457.387z"/>
	<path style="fill:#4D3D36;" d="M213.682,174.672c-5.632,0-10.199,4.567-10.199,10.199v237.699c0,5.632,4.567,10.199,10.199,10.199
		c5.632,0,10.199-4.567,10.199-10.199V184.871C223.882,179.238,219.314,174.672,213.682,174.672z"/>
	<path style="fill:#4D3D36;" d="M256,174.672c-5.632,0-10.199,4.567-10.199,10.199v237.699c0,5.632,4.567,10.199,10.199,10.199
		c5.632,0,10.199-4.567,10.199-10.199V184.871C266.199,179.238,261.632,174.672,256,174.672z"/>
	<path style="fill:#4D3D36;" d="M298.318,408.986c-5.632,0-10.199,4.567-10.199,10.199v3.383c0,5.632,4.567,10.199,10.199,10.199
		c5.632,0,10.199-4.567,10.199-10.199v-3.383C308.517,413.553,303.951,408.986,298.318,408.986z"/>
	<path style="fill:#4D3D36;" d="M298.318,174.672c-5.632,0-10.199,4.567-10.199,10.199V387.57c0,5.632,4.567,10.199,10.199,10.199
		c5.632,0,10.199-4.567,10.199-10.199V184.871C308.517,179.238,303.951,174.672,298.318,174.672z"/>
</g>
</svg>